<?xml version="1.0" encoding="UTF-8" standalone="no"?>
<!-- Created with Inkscape (http://www.inkscape.org/) -->

<svg
   width="165mm"
   height="50mm"
   viewBox="0 0 165 50.000001"
   version="1.1"
   id="svg1"
   xml:space="preserve"
   inkscape:version="1.3.2 (091e20ef0f, 2023-11-25, custom)"
   sodipodi:docname="radionets_logo.svg"
   xmlns:inkscape="http://www.inkscape.org/namespaces/inkscape"
   xmlns:sodipodi="http://sodipodi.sourceforge.net/DTD/sodipodi-0.dtd"
   xmlns="http://www.w3.org/2000/svg"
   xmlns:svg="http://www.w3.org/2000/svg"><sodipodi:namedview
     id="namedview1"
     pagecolor="#505050"
     bordercolor="#ffffff"
     borderopacity="1"
     inkscape:showpageshadow="0"
     inkscape:pageopacity="0"
     inkscape:pagecheckerboard="1"
     inkscape:deskcolor="#505050"
     inkscape:document-units="mm"
     inkscape:zoom="0.57099553"
     inkscape:cx="525.39816"
     inkscape:cy="530.65214"
     inkscape:window-width="1920"
     inkscape:window-height="1128"
     inkscape:window-x="0"
     inkscape:window-y="547"
     inkscape:window-maximized="1"
     inkscape:current-layer="layer1"><inkscape:page
       x="0"
       y="0"
       width="165"
       height="50"
       id="page415"
       margin="0"
       bleed="0" /></sodipodi:namedview><defs
     id="defs1" /><g
     inkscape:groupmode="layer"
     id="layer2"
     inkscape:label="Dark"
     transform="translate(-469.86693,-40.590054)"><g
       id="g120"
       inkscape:label="Backgrounds Dark"
       transform="matrix(1.0043625,0,0,1,-2.0497734,0)"
       style="display:none"><rect
         style="display:inline;fill:#222326;fill-opacity:1;stroke:none;stroke-width:1.03441;stroke-linejoin:bevel;stroke-dasharray:none;stroke-opacity:1"
         id="rect223"
         width="164.28331"
         height="50"
         x="469.86688"
         y="40.590057" /><rect
         style="display:inline;fill:#222326;fill-opacity:1;stroke:none;stroke-width:1.22128;stroke-linejoin:bevel;stroke-dasharray:none;stroke-opacity:1"
         id="rect270"
         width="229.00098"
         height="50"
         x="469.86703"
         y="100.98956" /><rect
         style="display:inline;fill:#222326;fill-opacity:1;stroke:none;stroke-width:0.493119;stroke-linejoin:bevel;stroke-dasharray:none;stroke-opacity:1"
         id="rect119"
         width="45.821442"
         height="40.739468"
         x="225.54768"
         y="50.857082"
         transform="translate(244.56676,156.19909)" /><rect
         style="display:inline;fill:#222326;fill-opacity:1;stroke:none;stroke-width:0.493119;stroke-linejoin:bevel;stroke-dasharray:none;stroke-opacity:1"
         id="rect120"
         width="45.821442"
         height="40.739468"
         x="470.11444"
         y="161.15434" /></g><g
       id="g82"
       style="display:inline"
       inkscape:label="Large w/ subtitle"
       transform="translate(243.60417,-5.7470913)"><g
         id="g71"
         transform="translate(0,0.12018345)"><text
           xml:space="preserve"
           style="font-size:23.1336px;letter-spacing:-1.08438px;display:inline;fill:#0c1f34;fill-opacity:1;stroke:none;stroke-width:1.12162;stroke-linejoin:bevel;stroke-dasharray:none;stroke-opacity:1"
           x="262.78409"
           y="75.3022"
           id="text70"><tspan
             sodipodi:role="line"
             id="tspan70"
             style="font-style:normal;font-variant:normal;font-weight:normal;font-stretch:normal;font-size:23.1336px;font-family:'Open Sans';-inkscape-font-specification:'Open Sans';letter-spacing:-1.08438px;fill:#0c1f34;fill-opacity:1;stroke-width:1.12162;stroke-dasharray:none"
             x="262.78409"
             y="75.3022"><tspan
               style="font-style:normal;font-variant:normal;font-weight:600;font-stretch:normal;font-family:'Open Sans';-inkscape-font-specification:'Open Sans Semi-Bold';letter-spacing:-1.08438px;fill:#fba44c;fill-opacity:1;stroke-width:1.12162"
               id="tspan67">RADIO</tspan><tspan
               style="letter-spacing:-1.89767px;fill:#ebebeb;fill-opacity:1;stroke-width:1.12162"
               id="tspan68">N</tspan><tspan
               style="letter-spacing:0px;fill:#ebebeb;fill-opacity:1;stroke-width:1.12162"
               id="tspan69">E</tspan><tspan
               style="fill:#ebebeb;fill-opacity:1"
               id="tspan165">TS</tspan></tspan></text><text
           xml:space="preserve"
           style="font-weight:600;font-size:4.65471px;font-family:'Open Sans';-inkscape-font-specification:'Open Sans Semi-Bold';letter-spacing:0px;fill:#ebebeb;fill-opacity:1;stroke-width:0.705396;stroke-linejoin:bevel"
           x="322.95612"
           y="82.787628"
           id="text71"><tspan
             sodipodi:role="line"
             id="tspan71"
             style="font-style:normal;font-variant:normal;font-weight:normal;font-stretch:normal;font-size:4.65471px;font-family:'Open Sans';-inkscape-font-specification:'Open Sans';text-align:center;letter-spacing:0px;text-anchor:middle;fill:#ebebeb;fill-opacity:1;stroke-width:0.705396"
             x="322.95612"
             y="82.787628">Deep Learning-Based Imaging in Radio Interferometry</tspan></text></g><g
         id="g81"
         inkscape:label="Icon"
         style="display:inline"
         transform="translate(0.16674263,-0.60189397)"><rect
           style="display:inline;fill:#0c1f34;fill-opacity:1;stroke:none;stroke-width:1.0788;stroke-linejoin:bevel;stroke-dasharray:none;stroke-opacity:1"
           id="rect71"
           width="25"
           height="25"
           x="235.9584"
           y="59.48904" /><g
           id="g80"
           style="display:inline"><circle
             style="opacity:1;fill:#454963;fill-opacity:1;stroke:#0c1f34;stroke-width:1.0688;stroke-linejoin:bevel;stroke-opacity:1"
             id="circle71"
             cx="256.22131"
             cy="63.902992"
             r="1.869351" /><circle
             style="opacity:1;fill:#454963;fill-opacity:1;stroke:#0c1f34;stroke-width:1.0688;stroke-linejoin:bevel;stroke-opacity:1"
             id="circle72"
             cx="245.21091"
             cy="68.410454"
             r="1.869351" /><circle
             style="opacity:1;fill:#454963;fill-opacity:1;stroke:#0c1f34;stroke-width:1.0688;stroke-linejoin:bevel;stroke-opacity:1"
             id="circle73"
             cx="238.91429"
             cy="62.939785"
             r="1.869351" /><circle
             style="opacity:1;fill:#454963;fill-opacity:1;stroke:#0c1f34;stroke-width:1.0688;stroke-linejoin:bevel;stroke-opacity:1"
             id="circle74"
             cx="238.99603"
             cy="73.890205"
             r="1.869351" /><circle
             style="opacity:1;fill:#454963;fill-opacity:1;stroke:#0c1f34;stroke-width:1.0688;stroke-linejoin:bevel;stroke-opacity:1"
             id="circle75"
             cx="-74.685738"
             cy="251.65407"
             r="1.869351"
             transform="rotate(-90)" /><circle
             style="opacity:1;fill:#454963;fill-opacity:1;stroke:#0c1f34;stroke-width:1.0688;stroke-linejoin:bevel;stroke-opacity:1"
             id="circle76"
             cx="-80.991096"
             cy="246.42555"
             r="1.869351"
             transform="rotate(-90)" /><circle
             style="opacity:1;fill:#454963;fill-opacity:1;stroke:#0c1f34;stroke-width:1.0688;stroke-linejoin:bevel;stroke-opacity:1"
             id="circle77"
             cx="-81.108955"
             cy="257.17551"
             r="1.869351"
             transform="rotate(-90)" /><path
             style="display:inline;opacity:1;fill:none;stroke:#454963;stroke-width:0.595;stroke-linecap:round;stroke-linejoin:round;stroke-dasharray:none;stroke-opacity:1"
             d="m 238.99603,73.890207 -0.1483,-10.984257 17.37357,0.997043 1.0406,17.251749 -10.83635,-0.163645 5.22851,-6.305357 z"
             id="path77" /><path
             style="display:inline;opacity:1;fill:none;stroke:#454963;stroke-width:0.595;stroke-linecap:round;stroke-linejoin:round;stroke-dasharray:none;stroke-opacity:1"
             d="m 238.84773,62.90595 7.57782,18.08515 -1.21465,-12.580644 -6.21487,5.479753 18.26589,7.26453"
             id="path78" /><path
             style="display:inline;opacity:1;fill:none;stroke:#454963;stroke-width:0.595;stroke-linecap:round;stroke-linejoin:round;stroke-dasharray:none;stroke-opacity:1"
             d="M 251.65406,74.685743 256.2213,63.902996"
             id="path79" /><path
             style="display:inline;opacity:1;fill:none;stroke:#454963;stroke-width:0.595;stroke-linecap:round;stroke-linejoin:round;stroke-dasharray:none;stroke-opacity:1"
             d="m 245.2109,68.410459 11.0104,-4.507461"
             id="path80" /></g><path
           id="path81"
           style="color:#000000;display:inline;fill:#fefafa;stroke:#fefafa;stroke-width:0.309;stroke-linecap:round;stroke-linejoin:round;stroke-dasharray:none;stroke-opacity:1"
           d="m 251.75432,66.916239 -0.15685,-0.07385 -8.72398,-0.812515 -0.006,0.07235 -5.13599,-5.090253 -0.45461,0.228567 c -0.26435,3.737835 -0.47615,6.708816 0.0244,9.395774 0.50054,2.686951 1.72222,5.073785 4.28542,7.613656 2.56319,2.539907 4.99136,3.770649 7.73803,4.303872 2.74669,0.533231 5.79705,0.376725 9.63894,0.183784 l 0.23128,-0.45494 -5.10977,-5.06407 -0.89121,-8.785669 -0.0737,-0.153787 z m -0.29344,0.424956 0.46991,0.469204 -3.65058,3.656077 -4.92451,-4.879938 z m 0.83111,0.829873 0.40267,0.402053 0.82052,8.081594 -4.87249,-4.828836 z m 6.07301,14.077066 c -3.498,0.172853 -6.3597,0.284056 -8.8575,-0.20085 -2.21041,-0.429124 -4.19412,-1.313375 -6.24261,-3.022706 4.02379,1.651913 8.58842,2.025173 12.89394,1.036767 z m -2.6359,-2.61249 c -4.0891,0.868612 -8.40637,0.487871 -12.22067,-1.068118 2.99103,0.431063 6.21106,-0.517923 8.57605,-2.544011 z m -4.00032,-3.964771 c -2.40515,2.04121 -5.75781,2.924704 -8.74617,2.282095 -0.12397,-0.02664 -0.24702,-0.05696 -0.36946,-0.08847 l 5.63467,-5.643151 z m -3.84386,-3.808514 -5.67562,5.68418 c -0.0438,-0.160285 -0.0839,-0.32161 -0.11904,-0.484678 -0.64438,-2.974878 0.22448,-6.313145 2.24362,-8.719132 z M 243.97847,67.9905 c -2.00318,2.364891 -2.93717,5.569956 -2.50365,8.546468 -1.5497,-3.782632 -1.94388,-8.06244 -1.10715,-12.124812 z m -4.03843,-4.001928 c -0.96186,4.315209 -0.55977,8.881638 1.12212,12.8974 -1.89558,-2.134134 -2.8342,-4.165186 -3.25623,-6.430615 -0.45454,-2.439959 -0.28866,-5.224766 -0.0505,-8.632032 z" /></g><g
         id="g161"
         inkscape:label="Icon"
         style="display:inline"
         transform="translate(0.16673654,-0.25176199)"><rect
           style="display:inline;fill:#ebebeb;fill-opacity:1;stroke:none;stroke-width:1.0788;stroke-linejoin:bevel;stroke-dasharray:none;stroke-opacity:1"
           id="rect151"
           width="25"
           height="25"
           x="235.9584"
           y="59.139034" /><g
           id="g160"
           style="display:inline"><circle
             style="opacity:1;fill:#d5c7db;fill-opacity:1;stroke:none;stroke-width:1.0688;stroke-linejoin:bevel;stroke-opacity:1"
             id="circle151"
             cx="256.22131"
             cy="63.902992"
             r="1.869351" /><circle
             style="opacity:1;fill:#d5c7db;fill-opacity:1;stroke:none;stroke-width:1.0688;stroke-linejoin:bevel;stroke-opacity:1"
             id="circle152"
             cx="245.21091"
             cy="68.410454"
             r="1.869351" /><circle
             style="opacity:1;fill:#d5c7db;fill-opacity:1;stroke:none;stroke-width:1.0688;stroke-linejoin:bevel;stroke-opacity:1"
             id="circle153"
             cx="238.91429"
             cy="62.939785"
             r="1.869351" /><circle
             style="opacity:1;fill:#d5c7db;fill-opacity:1;stroke:none;stroke-width:1.0688;stroke-linejoin:bevel;stroke-opacity:1"
             id="circle154"
             cx="238.99603"
             cy="73.890205"
             r="1.869351" /><circle
             style="opacity:1;fill:#d5c7db;fill-opacity:1;stroke:none;stroke-width:1.0688;stroke-linejoin:bevel;stroke-opacity:1"
             id="circle155"
             cx="-74.685738"
             cy="251.65407"
             r="1.869351"
             transform="rotate(-90)" /><circle
             style="opacity:1;fill:#d5c7db;fill-opacity:1;stroke:none;stroke-width:1.0688;stroke-linejoin:bevel;stroke-opacity:1"
             id="circle156"
             cx="-80.991096"
             cy="246.42555"
             r="1.869351"
             transform="rotate(-90)" /><circle
             style="opacity:1;fill:#d5c7db;fill-opacity:1;stroke:none;stroke-width:1.0688;stroke-linejoin:bevel;stroke-opacity:1"
             id="circle157"
             cx="-81.108955"
             cy="257.17551"
             r="1.869351"
             transform="rotate(-90)" /><path
             style="display:inline;opacity:1;fill:#000000;fill-opacity:0;stroke:#d5c7db;stroke-width:0.595;stroke-linecap:round;stroke-linejoin:round;stroke-dasharray:none;stroke-opacity:1"
             d="m 238.99603,73.890207 -0.1483,-10.984257 17.37357,0.997043 1.0406,17.251749 -10.83635,-0.163645 5.22851,-6.305357 z"
             id="path157" /><path
             style="display:inline;opacity:1;fill:#000000;fill-opacity:0;stroke:#d5c7db;stroke-width:0.595;stroke-linecap:round;stroke-linejoin:round;stroke-dasharray:none;stroke-opacity:1"
             d="m 238.84773,62.90595 7.57782,18.08515 -1.21465,-12.580644 -6.21487,5.479753 18.26589,7.26453"
             id="path158" /><path
             style="display:inline;opacity:1;fill:#000000;fill-opacity:0;stroke:#d5c7db;stroke-width:0.595;stroke-linecap:round;stroke-linejoin:round;stroke-dasharray:none;stroke-opacity:1"
             d="M 251.65406,74.685743 256.2213,63.902996"
             id="path159" /><path
             style="display:inline;opacity:1;fill:#000000;fill-opacity:0;stroke:#d5c7db;stroke-width:0.595;stroke-linecap:round;stroke-linejoin:round;stroke-dasharray:none;stroke-opacity:1"
             d="m 245.2109,68.410459 11.0104,-4.507461"
             id="path160" /></g><path
           id="path161"
           style="color:#000000;display:inline;fill:#0c1f34;fill-opacity:1;stroke:#0c1f34;stroke-width:0.309;stroke-linecap:round;stroke-linejoin:round;stroke-dasharray:none;stroke-opacity:1"
           d="m 251.75432,66.916239 -0.15685,-0.07385 -8.72398,-0.812515 -0.006,0.07235 -5.13599,-5.090253 -0.45461,0.228567 c -0.26435,3.737835 -0.47615,6.708816 0.0244,9.395774 0.50054,2.686951 1.72222,5.073785 4.28542,7.613656 2.56319,2.539907 4.99136,3.770649 7.73803,4.303872 2.74669,0.533231 5.79705,0.376725 9.63894,0.183784 l 0.23128,-0.45494 -5.10977,-5.06407 -0.89121,-8.785669 -0.0737,-0.153787 z m -0.29344,0.424956 0.46991,0.469204 -3.65058,3.656077 -4.92451,-4.879938 z m 0.83111,0.829873 0.40267,0.402053 0.82052,8.081594 -4.87249,-4.828836 z m 6.07301,14.077066 c -3.498,0.172853 -6.3597,0.284056 -8.8575,-0.20085 -2.21041,-0.429124 -4.19412,-1.313375 -6.24261,-3.022706 4.02379,1.651913 8.58842,2.025173 12.89394,1.036767 z m -2.6359,-2.61249 c -4.0891,0.868612 -8.40637,0.487871 -12.22067,-1.068118 2.99103,0.431063 6.21106,-0.517923 8.57605,-2.544011 z m -4.00032,-3.964771 c -2.40515,2.04121 -5.75781,2.924704 -8.74617,2.282095 -0.12397,-0.02664 -0.24702,-0.05696 -0.36946,-0.08847 l 5.63467,-5.643151 z m -3.84386,-3.808514 -5.67562,5.68418 c -0.0438,-0.160285 -0.0839,-0.32161 -0.11904,-0.484678 -0.64438,-2.974878 0.22448,-6.313145 2.24362,-8.719132 z M 243.97847,67.9905 c -2.00318,2.364891 -2.93717,5.569956 -2.50365,8.546468 -1.5497,-3.782632 -1.94388,-8.06244 -1.10715,-12.124812 z m -4.03843,-4.001928 c -0.96186,4.315209 -0.55977,8.881638 1.12212,12.8974 -1.89558,-2.134134 -2.8342,-4.165186 -3.25623,-6.430615 -0.45454,-2.439959 -0.28866,-5.224766 -0.0505,-8.632032 z" /></g></g></g></svg>
